# xmcd
#
# Track frame offsets: 
#        150
#        66701
#        107135
#        162486
#        187387
#        245760
#        288937
#
# Disc length: 4564 seconds
#
# Revision: 2
# Processed by: cddbd v1.5.2PL0 Copyright (c) Steve Scherf et al.
# Submitted via: ExactAudioCopy v1.3
#
DISCID=7411d207
DTITLE=Pharoah Sanders and The Underground - Spiral Mercury
DYEAR=2014
DGENRE=Jazz
TTITLE0=Gna Toom
TTITLE1=Spiral Mercury
TTITLE2=Blue Sparks From Her
TTITLE3=Asasumamehn
TTITLE4=Pigeon
TTITLE5=Jagoda's Dream
TTITLE6=The Ghost Zoo
EXTD=YEAR: 2014
EXTT0=
EXTT1=
EXTT2=
EXTT3=
EXTT4=
EXTT5=
EXTT6=
PLAYORDER=
